<svg xmlns="http://www.w3.org/2000/svg" xmlns:xlink="http://www.w3.org/1999/xlink" viewBox="0 0 1347.98 243.57"><defs><style>.cls-1,.cls-3,.cls-5{fill:none;}.cls-2{clip-path:url(#clip-path);}.cls-3{stroke:#2c7be5;stroke-width:3px;}.cls-3,.cls-5{stroke-miterlimit:10;}.cls-4{fill:#ffc107;}.cls-5{stroke:#fff;stroke-linecap:round;stroke-width:4px;}.cls-6{fill:#00dffc;}.cls-7{fill:#fff;}</style><clipPath id="clip-path" transform="translate(76.39 36.57)"><path id="SVGID" class="cls-1" d="M83.66,125.08V90a11.51,11.51,0,0,0-5.76-9.9L47.59,62.54a11.52,11.52,0,0,0-11.42,0L5.76,80.12A11.49,11.49,0,0,0,0,90v35.06A11.49,11.49,0,0,0,5.76,135l30.41,17.58a11.52,11.52,0,0,0,11.42,0L78,135A11.77,11.77,0,0,0,83.66,125.08Z"/></clipPath></defs><g id="Layer_2" data-name="Layer 2"><g id="Layer_1-2" data-name="Layer 1"><g class="cls-2"><line class="cls-3" x1="1.32" y1="54.36" x2="101.14" y2="241.06"/><line class="cls-3" x1="7.79" y1="51.02" x2="107.61" y2="237.63"/><line class="cls-3" x1="14.15" y1="47.59" x2="114.08" y2="234.3"/><line class="cls-3" x1="20.62" y1="44.25" x2="120.54" y2="230.96"/><line class="cls-3" x1="27.09" y1="40.92" x2="126.91" y2="227.63"/><line class="cls-3" x1="33.45" y1="37.58" x2="133.37" y2="224.29"/><line class="cls-3" x1="39.92" y1="34.25" x2="139.84" y2="220.96"/><line class="cls-3" x1="46.38" y1="30.92" x2="146.31" y2="217.62"/><line class="cls-3" x1="52.85" y1="27.48" x2="152.67" y2="214.29"/><line class="cls-3" x1="59.21" y1="24.15" x2="159.14" y2="210.86"/><line class="cls-3" x1="65.68" y1="20.81" x2="165.6" y2="207.52"/><line class="cls-3" x1="72.15" y1="17.48" x2="172.07" y2="204.19"/><line class="cls-3" x1="78.61" y1="14.14" x2="178.43" y2="200.85"/><line class="cls-3" x1="84.98" y1="10.81" x2="184.9" y2="197.52"/><line class="cls-3" x1="91.44" y1="7.48" x2="191.37" y2="194.19"/><line class="cls-3" x1="97.91" y1="4.14" x2="197.73" y2="190.85"/><line class="cls-3" x1="104.38" y1="0.71" x2="204.2" y2="187.42"/></g><path class="cls-4" d="M191.05,82.14,158.62,49.71a1.69,1.69,0,0,1,.81-2.83l44.25-11.82a1.77,1.77,0,0,1,2.12,2.12L194,81.43A1.81,1.81,0,0,1,191.05,82.14ZM172.26,53.35,187.32,68.4a1.68,1.68,0,0,0,2.82-.81L195.7,47a1.77,1.77,0,0,0-2.12-2.12L173,50.42A1.81,1.81,0,0,0,172.26,53.35Z" transform="translate(76.39 36.57)"/><path class="cls-4" d="M224.9,126l-15.26-15.26a1.32,1.32,0,0,1,.61-2.22L231.06,103a1.29,1.29,0,0,1,1.62,1.62l-5.56,20.81A1.31,1.31,0,0,1,224.9,126Zm-8.29-13.34,6.47,6.47a1.32,1.32,0,0,0,2.22-.61l2.33-8.79a1.28,1.28,0,0,0-1.62-1.61l-8.79,2.32A1.31,1.31,0,0,0,216.61,112.65Z" transform="translate(76.39 36.57)"/><circle class="cls-4" cx="1163.5" cy="182.97" r="34.35"/><line class="cls-5" x1="1161.48" y1="203.18" x2="1126.12" y2="241.57"/><line class="cls-5" x1="1161.48" y1="185.5" x2="1126.12" y2="223.89"/><line class="cls-5" x1="1161.48" y1="167.82" x2="1126.12" y2="206.21"/><path class="cls-1" d="M1207.14,8.79a13.3,13.3,0,0,1,13.94.3c.81-2.72,1.72-5.76,2.73-9.09l-38.19,19.1,12.63,17v.3a11.37,11.37,0,0,0,.2,1.82c.51-5,.91-11,1.42-17.68A14.36,14.36,0,0,1,1207.14,8.79Z" transform="translate(76.39 36.57)"/><path class="cls-1" d="M1234.82,99.92a35.9,35.9,0,0,0-16,4.55,172,172,0,0,1-4.75,21.82l20.82-10a132.58,132.58,0,0,0,4-16.27c-.81,0-1.62-.1-2.43-.1Z" transform="translate(76.39 36.57)"/><path class="cls-1" d="M1188.25,25.86c2.63,8.9,4.85,21.63,5,22.33l.1.31-.1.3a27.93,27.93,0,0,0-2.32,9.9c3.73-1.92,5.65-7.07,6.87-15a24.09,24.09,0,0,1-1.42-7.08Z" transform="translate(76.39 36.57)"/><path class="cls-1" d="M1195.12,128.72a104.48,104.48,0,0,1-3.54,11l8.19,2.42a102.25,102.25,0,0,0,6.66-25.05h0C1203,122.86,1199.36,127.1,1195.12,128.72Z" transform="translate(76.39 36.57)"/><path class="cls-1" d="M1229.17,45.87a67.24,67.24,0,0,0,2.42,7.78,15,15,0,0,0,6.47,7.47,30.81,30.81,0,0,0-3.34-7.17A80,80,0,0,0,1229.17,45.87Z" transform="translate(76.39 36.57)"/><path class="cls-1" d="M1183.6,19.6l.71-.5-.2-.41-.81.61L1183,19c-.4.31-1.92,2.53-2.93,17.38a189.75,189.75,0,0,0-.3,25.77,32.15,32.15,0,0,1,8.39-2.53c.2,0,.5-.1.7-.1a31.18,31.18,0,0,1,2.33-11.12C1190.67,45.46,1186.93,24.55,1183.6,19.6Z" transform="translate(76.39 36.57)"/><path class="cls-6" d="M1231.59,53.65a73.85,73.85,0,0,1-2.42-7.78c-1.32-1.72-2.63-3.34-3.84-4.65-7-8.28-9.9-11.82-4.35-32.23a13.75,13.75,0,0,0-13.94-.3,14.25,14.25,0,0,0-7.27,11.62c-.51,6.67-.91,12.63-1.42,17.68.61,4,3.23,14.35,14.65,25.76,8.29,8.29,7.88,25.87,5.66,40.62a38.7,38.7,0,0,1,16-4.55h1.72c.81,0,1.62.1,2.42.1,2.13-11.42,3.44-26.57-.8-38.9A13.89,13.89,0,0,1,1231.59,53.65Z" transform="translate(76.39 36.57)"/><path class="cls-6" d="M1211.69,65.27c-8.39-8.39-12.23-16.17-13.94-21.52-1.22,8-3.14,13-6.87,15-.41,6.77,1.31,16.37,10.2,26.37,6.87,7.68,8.49,18.19,7.78,28.19a31.13,31.13,0,0,1,7.68-7.38C1218.86,91.23,1219.67,73.25,1211.69,65.27Z" transform="translate(76.39 36.57)"/><path class="cls-6" d="M1226.94,39.91l1.32,1.61c-1.22-7.07-1-13.53-.81-20.1a14.23,14.23,0,0,0-4.65-11.11C1217.75,28.9,1220.38,32.13,1226.94,39.91Z" transform="translate(76.39 36.57)"/><path class="cls-6" d="M1179.76,62c1,15.46,4.65,21,9,27.49a69.73,69.73,0,0,1,5.36,9c4.65,9.29,3.23,21.42,1,30.21,4.24-1.62,7.88-5.86,11.21-11.62h0c1.32-10.71.41-22.53-6.87-30.62-9-10-10.91-19.8-10.71-27.07-.2,0-.5.1-.7.1A31.76,31.76,0,0,0,1179.76,62Z" transform="translate(76.39 36.57)"/><path class="cls-6" d="M1259.07,67.09a13.26,13.26,0,0,0-3.53-.51,31.5,31.5,0,0,1-14.86-4c3.64,12.33,2.43,26.67.31,37.58,18.79.41,29.5-2.72,30-10.3C1273.22,77.59,1269.18,70,1259.07,67.09Z" transform="translate(76.39 36.57)"/><path class="cls-6" d="M1192.29,99.42a66,66,0,0,0-5.25-8.69c-4.45-6.57-8.19-12.23-9.3-27.58-10,5.65-13.23,15.66-12.83,20.71.3,3.33-.3-3-.3.3.2,14.15,6.36,26.47,14.24,38.29a15.77,15.77,0,0,0,3.64,3.74c3.84,2.73,7.27,3.64,10.41,3.23C1195,120.63,1196.84,108.41,1192.29,99.42Z" transform="translate(76.39 36.57)"/><path class="cls-7" d="M1194.11,98.41a84.6,84.6,0,0,0-5.36-9c-4.34-6.46-8-12-9-27.48a12.45,12.45,0,0,0-1.92,1c1.11,15.36,4.85,21,9.3,27.59a74,74,0,0,1,5.25,8.68c4.55,9.1,2.83,21.22.51,29.91a9.6,9.6,0,0,0,2.32-.61C1197.34,119.83,1198.76,107.8,1194.11,98.41Z" transform="translate(76.39 36.57)"/><path class="cls-7" d="M1201.08,85.07c-8.89-10-10.61-19.6-10.2-26.37a11.19,11.19,0,0,1-1.92.71c-.21,7.17,1.71,17.07,10.7,27.07,7.28,8.09,8.19,19.91,6.88,30.62.8-1.32,1.61-2.63,2.42-3.74C1209.47,103.26,1208,92.75,1201.08,85.07Z" transform="translate(76.39 36.57)"/><path class="cls-7" d="M1221.39,9.19c-.1-.1-.2-.1-.31-.2-5.65,20.31-2.62,23.95,4.35,32.23,1.11,1.42,2.42,2.93,3.84,4.65-.31-1.52-.61-2.93-.91-4.35-.51-.6-.91-1.11-1.32-1.61-6.56-7.78-9.19-11-4.14-29.6A14.68,14.68,0,0,0,1221.39,9.19Z" transform="translate(76.39 36.57)"/><path class="cls-7" d="M1213.1,63.85c-11.41-11.41-14-21.72-14.65-25.76-.2,2-.4,3.94-.7,5.66,1.71,5.35,5.55,13.13,13.94,21.52,8,8,7.17,26,4.75,40.61a27.12,27.12,0,0,1,2.32-1.41C1221,89.72,1221.39,72.14,1213.1,63.85Z" transform="translate(76.39 36.57)"/><path class="cls-7" d="M1240.68,62.54c-.8-.4-1.71-.91-2.62-1.42h0c4.24,12.43,2.93,27.59.81,38.9a15.12,15.12,0,0,1,2.12.1C1243,89.21,1244.32,74.87,1240.68,62.54Z" transform="translate(76.39 36.57)"/></g></g></svg>